<svg width="80" height="80" viewBox="0 0 80 80" fill="none" xmlns="http://www.w3.org/2000/svg">
<rect x="0.5" y="0.5" width="79" height="79" rx="39.5" fill="white" fill-opacity="0.15"/>
<rect x="0.5" y="0.5" width="79" height="79" rx="39.5" stroke="white"/>
<path d="M47.5783 17.8936C47.5974 17.3416 47.1653 16.8788 46.6134 16.8597L37.6187 16.5496C37.0668 16.5305 36.6039 16.9626 36.5849 17.5145C36.5658 18.0665 36.9978 18.5294 37.5498 18.5484L45.545 18.8241L45.2694 26.8193C45.2503 27.3713 45.6823 27.8342 46.2343 27.8532C46.7863 27.8722 47.2491 27.4402 47.2682 26.8883L47.5783 17.8936ZM34.1022 30.8719L47.2612 18.5902L45.8966 17.1281L32.7376 29.4098L34.1022 30.8719Z" fill="white"/>
<path d="M23.968 54.1409L19.306 41.5409H21.358L25.12 52.1609L28.918 41.5409H30.934L26.272 54.1409H23.968ZM32.4764 54.1409V41.5409H34.3844V54.1409H32.4764ZM41.0289 54.3569C40.1649 54.3569 39.3789 54.2069 38.6709 53.9069C37.9749 53.5949 37.4229 53.1449 37.0149 52.5569C36.6069 51.9569 36.3969 51.2189 36.3849 50.3429H38.3829C38.3949 51.0629 38.6409 51.6449 39.1209 52.0889C39.6009 52.5209 40.2369 52.7369 41.0289 52.7369C41.7129 52.7369 42.2709 52.5749 42.7029 52.2509C43.1469 51.9149 43.3689 51.4529 43.3689 50.8649C43.3689 50.5049 43.3089 50.2109 43.1889 49.9829C43.0689 49.7429 42.8709 49.5329 42.5949 49.3529C42.3309 49.1729 41.9769 49.0049 41.5329 48.8489C41.0889 48.6809 40.5429 48.4889 39.8949 48.2729C39.1749 48.0209 38.5809 47.7389 38.1129 47.4269C37.6569 47.1029 37.3149 46.7309 37.0869 46.3109C36.8589 45.8789 36.7449 45.3929 36.7449 44.8529C36.7449 44.0849 36.9249 43.4429 37.2849 42.9269C37.6569 42.3989 38.1549 42.0029 38.7789 41.7389C39.4029 41.4629 40.0929 41.3249 40.8489 41.3249C41.6169 41.3249 42.3069 41.4629 42.9189 41.7389C43.5429 42.0029 44.0409 42.4049 44.4129 42.9449C44.7969 43.4729 44.9949 44.1209 45.0069 44.8889H42.9729C42.9729 44.3369 42.7689 43.8749 42.3609 43.5029C41.9649 43.1309 41.4369 42.9449 40.7769 42.9449C40.2129 42.9329 39.7329 43.0769 39.3369 43.3769C38.9409 43.6769 38.7429 44.1149 38.7429 44.6909C38.7429 45.0989 38.8569 45.4289 39.0849 45.6809C39.3129 45.9329 39.6549 46.1549 40.1109 46.3469C40.5669 46.5389 41.1369 46.7549 41.8209 46.9949C42.2649 47.1389 42.6969 47.3069 43.1169 47.4989C43.5489 47.6909 43.9329 47.9309 44.2689 48.2189C44.6049 48.4949 44.8689 48.8369 45.0609 49.2449C45.2649 49.6529 45.3669 50.1509 45.3669 50.7389C45.3669 51.5069 45.1689 52.1609 44.7729 52.7009C44.3889 53.2289 43.8669 53.6369 43.2069 53.9249C42.5589 54.2129 41.8329 54.3569 41.0289 54.3569ZM47.3826 54.1409V41.5409H49.2906V54.1409H47.3826ZM54.7292 54.1409V43.1429H51.0032V41.5409H60.3632V43.1429H56.6372V54.1409H54.7292Z" fill="white"/>
</svg>
